<svg width="742" height="181" viewBox="0 0 742 181" fill="none" xmlns="http://www.w3.org/2000/svg">
<path d="M59.9062 171.109C56.7812 173.797 53.2812 175.859 49.4062 177.297C45.5312 178.734 41.5156 179.453 37.3594 179.453C34.1719 179.453 31.0938 179.031 28.125 178.188C25.1875 177.375 22.4219 176.219 19.8281 174.719C17.2656 173.188 14.9219 171.359 12.7969 169.234C10.6719 167.109 8.84375 164.766 7.3125 162.203C5.8125 159.609 4.64062 156.844 3.79688 153.906C2.98438 150.938 2.57812 147.859 2.57812 144.672C2.57812 141.484 2.98438 138.406 3.79688 135.438C4.64062 132.469 5.8125 129.703 7.3125 127.141C8.84375 124.547 10.6719 122.188 12.7969 120.062C14.9219 117.938 17.2656 116.125 19.8281 114.625C22.4219 113.094 25.1875 111.922 28.125 111.109C31.0938 110.266 34.1719 109.844 37.3594 109.844C41.5156 109.844 45.5312 110.562 49.4062 112C53.2812 113.406 56.7812 115.469 59.9062 118.188L52.7812 129.906C50.8125 127.781 48.4844 126.156 45.7969 125.031C43.1094 123.875 40.2969 123.297 37.3594 123.297C34.3906 123.297 31.6094 123.859 29.0156 124.984C26.4219 126.109 24.1562 127.641 22.2188 129.578C20.2812 131.484 18.75 133.75 17.625 136.375C16.5 138.969 15.9375 141.734 15.9375 144.672C15.9375 147.609 16.5 150.375 17.625 152.969C18.75 155.531 20.2812 157.781 22.2188 159.719C24.1562 161.656 26.4219 163.188 29.0156 164.312C31.6094 165.438 34.3906 166 37.3594 166C40.2969 166 43.1094 165.438 45.7969 164.312C48.4844 163.156 50.8125 161.516 52.7812 159.391L59.9062 171.109ZM81.1875 178H67.7344V110.781H81.1875V178ZM147.469 178H133.078L107.156 133.75V178H93.7031V110.781H108.094L134.016 155.078V110.781H147.469V178ZM206.062 178H159.984V110.781H206.062V124.234H173.438V137.688H195.516V151.141H173.438V164.547H206.062V178ZM282.188 178H268.781V130C268.781 129.062 268.594 128.188 268.219 127.375C267.875 126.562 267.391 125.859 266.766 125.266C266.172 124.641 265.469 124.156 264.656 123.812C263.844 123.469 262.969 123.297 262.031 123.297C261.094 123.297 260.219 123.469 259.406 123.812C258.594 124.156 257.875 124.641 257.25 125.266C256.656 125.859 256.188 126.562 255.844 127.375C255.5 128.188 255.328 129.062 255.328 130V178H241.875V130C241.875 129.062 241.703 128.188 241.359 127.375C241.016 126.562 240.531 125.859 239.906 125.266C239.312 124.641 238.609 124.156 237.797 123.812C236.984 123.469 236.109 123.297 235.172 123.297C234.234 123.297 233.359 123.469 232.547 123.812C231.734 124.156 231.016 124.641 230.391 125.266C229.797 125.859 229.328 126.562 228.984 127.375C228.641 128.188 228.469 129.062 228.469 130V178H215.016V130C215.016 127.219 215.531 124.609 216.562 122.172C217.625 119.703 219.062 117.562 220.875 115.75C222.719 113.906 224.859 112.469 227.297 111.438C229.766 110.375 232.391 109.844 235.172 109.844C237.672 109.844 240.078 110.297 242.391 111.203C244.703 112.078 246.781 113.359 248.625 115.047C250.469 113.359 252.531 112.078 254.812 111.203C257.125 110.297 259.531 109.844 262.031 109.844C264.812 109.844 267.422 110.375 269.859 111.438C272.328 112.469 274.469 113.906 276.281 115.75C278.125 117.562 279.562 119.703 280.594 122.172C281.656 124.609 282.188 127.219 282.188 130V178ZM333.797 151.141V137.688C333.797 135.844 333.438 134.109 332.719 132.484C332.031 130.828 331.078 129.391 329.859 128.172C328.641 126.953 327.203 126 325.547 125.312C323.922 124.594 322.188 124.234 320.344 124.234C318.5 124.234 316.75 124.594 315.094 125.312C313.469 126 312.047 126.953 310.828 128.172C309.609 129.391 308.641 130.828 307.922 132.484C307.234 134.109 306.891 135.844 306.891 137.688V151.141H333.797ZM347.25 178H333.797V164.547H306.891V178H293.484V137.688C293.484 133.969 294.188 130.484 295.594 127.234C297 123.953 298.906 121.094 301.312 118.656C303.75 116.219 306.594 114.297 309.844 112.891C313.125 111.484 316.625 110.781 320.344 110.781C324.062 110.781 327.547 111.484 330.797 112.891C334.078 114.297 336.938 116.219 339.375 118.656C341.812 121.094 343.734 123.953 345.141 127.234C346.547 130.484 347.25 133.969 347.25 137.688V178ZM547.219 157.844C547.219 160.625 546.688 163.234 545.625 165.672C544.562 168.109 543.109 170.25 541.266 172.094C539.453 173.906 537.328 175.344 534.891 176.406C532.453 177.469 529.844 178 527.062 178H493.453V110.781H527.062C529.844 110.781 532.453 111.312 534.891 112.375C537.328 113.438 539.453 114.891 541.266 116.734C543.109 118.547 544.562 120.672 545.625 123.109C546.688 125.547 547.219 128.156 547.219 130.938C547.219 132.188 547.047 133.469 546.703 134.781C546.359 136.094 545.875 137.359 545.25 138.578C544.625 139.797 543.875 140.906 543 141.906C542.125 142.906 541.156 143.734 540.094 144.391C541.188 144.984 542.172 145.797 543.047 146.828C543.922 147.828 544.672 148.938 545.297 150.156C545.922 151.375 546.391 152.656 546.703 154C547.047 155.312 547.219 156.594 547.219 157.844ZM506.906 164.547H527.062C528 164.547 528.875 164.375 529.688 164.031C530.5 163.688 531.203 163.219 531.797 162.625C532.422 162 532.906 161.281 533.25 160.469C533.594 159.656 533.766 158.781 533.766 157.844C533.766 156.906 533.594 156.031 533.25 155.219C532.906 154.406 532.422 153.703 531.797 153.109C531.203 152.484 530.5 152 529.688 151.656C528.875 151.312 528 151.141 527.062 151.141H506.906V164.547ZM506.906 137.688H527.062C528 137.688 528.875 137.516 529.688 137.172C530.5 136.828 531.203 136.359 531.797 135.766C532.422 135.141 532.906 134.422 533.25 133.609C533.594 132.766 533.766 131.875 533.766 130.938C533.766 130 533.594 129.125 533.25 128.312C532.906 127.5 532.422 126.797 531.797 126.203C531.203 125.578 530.5 125.094 529.688 124.75C528.875 124.406 528 124.234 527.062 124.234H506.906V137.688ZM604.453 178H557.391V110.781H570.844V164.547H604.453V178ZM675 144.672C675 147.859 674.578 150.938 673.734 153.906C672.922 156.844 671.766 159.609 670.266 162.203C668.766 164.766 666.953 167.109 664.828 169.234C662.703 171.359 660.359 173.188 657.797 174.719C655.234 176.219 652.469 177.375 649.5 178.188C646.531 179.031 643.453 179.453 640.266 179.453C637.078 179.453 634 179.031 631.031 178.188C628.094 177.375 625.328 176.219 622.734 174.719C620.172 173.188 617.828 171.359 615.703 169.234C613.578 167.109 611.75 164.766 610.219 162.203C608.719 159.609 607.547 156.844 606.703 153.906C605.891 150.938 605.484 147.859 605.484 144.672C605.484 141.484 605.891 138.406 606.703 135.438C607.547 132.469 608.719 129.703 610.219 127.141C611.75 124.578 613.578 122.234 615.703 120.109C617.828 117.984 620.172 116.172 622.734 114.672C625.328 113.172 628.094 112.016 631.031 111.203C634 110.359 637.078 109.938 640.266 109.938C643.453 109.938 646.531 110.359 649.5 111.203C652.469 112.016 655.234 113.172 657.797 114.672C660.359 116.172 662.703 117.984 664.828 120.109C666.953 122.234 668.766 124.578 670.266 127.141C671.766 129.703 672.922 132.469 673.734 135.438C674.578 138.406 675 141.484 675 144.672ZM661.641 144.672C661.641 141.734 661.078 138.969 659.953 136.375C658.828 133.75 657.297 131.484 655.359 129.578C653.453 127.641 651.188 126.109 648.562 124.984C645.969 123.859 643.203 123.297 640.266 123.297C637.297 123.297 634.516 123.859 631.922 124.984C629.328 126.109 627.062 127.641 625.125 129.578C623.188 131.484 621.656 133.75 620.531 136.375C619.406 138.969 618.844 141.734 618.844 144.672C618.844 147.609 619.406 150.375 620.531 152.969C621.656 155.531 623.188 157.781 625.125 159.719C627.062 161.656 629.328 163.188 631.922 164.312C634.516 165.438 637.297 166 640.266 166C643.203 166 645.969 165.438 648.562 164.312C651.188 163.188 653.453 161.656 655.359 159.719C657.297 157.781 658.828 155.531 659.953 152.969C661.078 150.375 661.641 147.609 661.641 144.672ZM737.344 171.203C734.219 173.859 730.734 175.906 726.891 177.344C723.047 178.75 719.047 179.453 714.891 179.453C711.703 179.453 708.625 179.031 705.656 178.188C702.719 177.375 699.969 176.219 697.406 174.719C694.844 173.188 692.5 171.375 690.375 169.281C688.25 167.156 686.438 164.812 684.938 162.25C683.438 159.656 682.266 156.875 681.422 153.906C680.609 150.938 680.203 147.859 680.203 144.672C680.203 141.484 680.609 138.422 681.422 135.484C682.266 132.547 683.438 129.797 684.938 127.234C686.438 124.641 688.25 122.297 690.375 120.203C692.5 118.078 694.844 116.266 697.406 114.766C699.969 113.266 702.719 112.109 705.656 111.297C708.625 110.453 711.703 110.031 714.891 110.031C719.047 110.031 723.047 110.75 726.891 112.188C730.734 113.594 734.219 115.625 737.344 118.281L730.312 130C728.281 127.938 725.938 126.328 723.281 125.172C720.625 123.984 717.828 123.391 714.891 123.391C711.953 123.391 709.188 123.953 706.594 125.078C704.031 126.203 701.781 127.734 699.844 129.672C697.906 131.578 696.375 133.828 695.25 136.422C694.125 138.984 693.562 141.734 693.562 144.672C693.562 147.641 694.125 150.422 695.25 153.016C696.375 155.609 697.906 157.875 699.844 159.812C701.781 161.75 704.031 163.281 706.594 164.406C709.188 165.531 711.953 166.094 714.891 166.094C716.578 166.094 718.219 165.891 719.812 165.484C721.406 165.078 722.922 164.516 724.359 163.797V144.672H737.344V171.203Z" fill="black"/>
<path d="M356.864 69.9006V75.2232L366.876 173.754C367.294 177.87 370.759 181 374.895 181H466.106C470.242 181 473.707 177.869 474.125 173.755L484.136 75.2235V69.9006H356.864Z" fill="#FF5E5B"/>
<path d="M420.498 69.9006V181H466.105C470.241 181 473.707 177.869 474.124 173.755L484.136 75.2235V69.9006H420.498Z" fill="#FF7A85"/>
<path d="M439.845 75.2967H401.154V180.966H439.845V75.2967Z" fill="#FF99A1"/>
<path d="M485.015 43.0416C484.968 43.0416 484.922 43.0448 484.874 43.0455C486.36 40.0643 487.199 36.7045 487.199 33.1477C487.199 20.8687 477.245 10.9144 464.966 10.9144C457.634 10.9144 451.132 14.4655 447.083 19.9397C443.729 8.42074 433.102 0 420.5 0C407.899 0 397.271 8.42074 393.917 19.9393C389.868 14.4655 383.366 10.9141 376.034 10.9141C363.755 10.9141 353.8 20.8684 353.8 33.1474C353.8 36.7041 354.64 40.0639 356.125 43.0451C356.078 43.0444 356.032 43.0412 355.985 43.0412C347.077 43.0412 339.856 50.2625 339.856 59.17C339.856 68.0776 347.077 75.2988 355.985 75.2988H485.015C493.922 75.2988 501.144 68.0776 501.144 59.17C501.144 50.2625 493.923 43.0416 485.015 43.0416Z" fill="white"/>
<path d="M485.015 43.0416C484.968 43.0416 484.922 43.0448 484.874 43.0455C486.36 40.0643 487.2 36.7045 487.2 33.1477C487.2 20.8687 477.245 10.9144 464.966 10.9144C457.634 10.9144 451.132 14.4655 447.083 19.9397C443.729 8.42074 433.102 0 420.5 0C420.5 0 420.499 0 420.499 0V75.2992H485.015C493.923 75.2992 501.144 68.0779 501.144 59.1704C501.144 50.2628 493.923 43.0416 485.015 43.0416Z" fill="#FFD4D8"/>
<path d="M439.845 75.2967H420.499V180.966H439.845V75.2967Z" fill="#FF99A1"/>
<path d="M439.846 152.987C428.49 161.85 412.505 161.845 401.155 152.987C384.939 140.354 384.974 115.886 401.155 103.28C412.511 94.4166 428.496 94.4215 439.846 103.28C456.06 115.912 456.028 140.38 439.846 152.987Z" fill="white"/>
<path d="M439.846 103.28C434.169 98.8493 427.334 96.6338 420.499 96.6346V159.632C427.333 159.633 434.168 157.418 439.846 152.987C456.028 140.38 456.06 115.912 439.846 103.28Z" fill="white"/>
</svg>
